<?xml version="1.0" encoding="UTF-8"?> <svg xmlns="http://www.w3.org/2000/svg" xmlns:xlink="http://www.w3.org/1999/xlink" xml:space="preserve" width="118px" height="71px" version="1.1" style="shape-rendering:geometricPrecision; text-rendering:geometricPrecision; image-rendering:optimizeQuality; fill-rule:evenodd; clip-rule:evenodd" viewBox="0 0 118 70.8"> <defs> <style type="text/css"> .fil1 {fill:#FAA841;fill-rule:nonzero} .fil0 {fill:black;fill-rule:nonzero} </style> </defs> <g id="Layer_x0020_1"> <metadata id="CorelCorpID_0Corel-Layer"></metadata> <g id="_1297542209712"> <polygon class="fil0" points="22.38,1.02 14.48,1.02 14.48,0.09 22,0.09 30.37,0.09 38.27,0.09 38.27,1.02 30.75,1.02 51.78,57.49 65.38,21.55 57.68,1.02 50.16,1.02 50.16,0.09 57.39,0.09 65.76,0.09 74.04,0.09 74.04,1.02 66.05,1.02 87.08,57.49 108.39,1.02 99.45,1.02 99.45,0.09 108.68,0.09 108.68,0 110.2,0 110.2,0.09 118,0.09 118,1.02 109.91,1.02 83.56,70.67 66.14,23.59 48.26,70.67 "></polygon> <polygon class="fil1" points="34.89,70.8 26.28,70.8 0,0.05 8.45,0.05 "></polygon> </g> </g> </svg> 